<svg xmlns="http://www.w3.org/2000/svg" xmlns:xlink="http://www.w3.org/1999/xlink" viewBox="0 0 101.198 96.538" overflow="visible"><path d="M 56.523 31.662 L 98.518 31.662 C 100.573 31.662 101.865 33.888 100.837 35.678 L 95.592 44.768 C 94.988 45.816 93.762 46.337 92.588 46.045 L 55.868 36.939 C 52.802 36.176 53.348 31.662 56.507 31.662 Z M 59.783 42.306 L 90.011 49.793 C 91.879 50.26 92.781 52.362 91.816 54.027 L 88.05 60.55 C 87.263 61.905 85.547 62.399 84.16 61.67 L 57.696 47.662 C 54.676 46.059 56.451 41.498 59.782 42.307 Z M 59.736 53.55 L 82.726 65.722 C 83.418 66.087 83.931 66.718 84.148 67.469 C 84.366 68.22 84.268 69.028 83.878 69.706 L 81.216 74.314 C 81.014 74.656 80.811 75.014 80.593 75.341 C 79.643 76.882 77.511 77.178 76.157 75.979 L 56.42 58.25 C 53.883 55.978 56.716 51.962 59.736 53.55 Z M 56.152 63.747 L 73.772 79.561 C 75.002 80.667 75.033 82.581 73.866 83.764 C 72.429 85.22 70.895 86.578 69.274 87.827 C 67.935 88.854 66.005 88.558 65.056 87.173 L 51.778 67.513 C 49.879 64.696 53.6 61.474 56.137 63.747 Z M 50.291 72.834 L 61.156 88.976 C 62.168 90.486 61.529 92.54 59.848 93.272 C 58.284 93.942 56.684 94.524 55.054 95.015 C 53.654 95.435 52.066 94.579 51.568 93.21 L 45.139 75.434 C 43.987 72.227 48.377 70.017 50.276 72.834 Z M 38.13 93.88 L 36.853 81.537 C 36.511 78.144 41.305 77.054 42.473 80.245 L 46.971 92.635 C 47.641 94.488 46.301 96.48 44.325 96.527 C 43.142 96.557 41.943 96.527 40.76 96.464 C 39.437 96.387 38.27 95.188 38.13 93.896 L 38.13 93.881 Z M 26.11 89.936 L 26.997 83.756 C 27.48 80.379 32.414 80.472 32.757 83.85 L 33.457 90.652 C 33.675 92.816 31.527 94.403 29.488 93.641 C 28.912 93.423 28.336 93.189 27.76 92.956 C 26.67 92.489 25.923 91.103 26.095 89.921 Z M 17.112 83.196 C 18.404 80.036 23.151 81.312 22.669 84.674 C 22.373 86.698 20.131 87.787 18.357 86.776 C 17.1 86.066 16.566 84.532 17.112 83.196 Z M 44.675 64.88 L 2.68 64.88 C 0.625 64.88 -0.667 62.655 0.36 60.865 L 5.606 51.775 C 6.21 50.726 7.436 50.205 8.61 50.498 L 45.329 59.604 C 48.395 60.367 47.851 64.881 44.691 64.881 L 44.675 64.881 Z M 41.401 54.222 L 11.173 46.735 C 9.305 46.268 8.403 44.167 9.368 42.501 L 13.135 35.979 C 13.922 34.623 15.639 34.128 17.026 34.859 L 43.487 48.867 C 46.507 50.471 44.732 55.031 41.401 54.222 Z M 41.455 42.97 L 18.465 30.797 C 17.774 30.431 17.26 29.801 17.043 29.049 C 16.826 28.298 16.923 27.491 17.313 26.813 L 19.975 22.205 C 20.177 21.863 20.379 21.505 20.597 21.178 C 21.547 19.637 23.679 19.341 25.033 20.54 L 44.77 38.269 C 47.308 40.541 44.475 44.557 41.455 42.969 Z M 45.023 32.775 L 27.403 16.96 C 26.173 15.855 26.143 13.94 27.31 12.757 C 28.747 11.301 30.282 9.944 31.902 8.695 C 33.24 7.667 35.17 7.963 36.12 9.348 L 49.397 29.008 C 51.297 31.825 47.577 35.047 45.039 32.775 Z M 50.912 23.706 L 40.047 7.565 C 39.035 6.055 39.673 4 41.355 3.269 C 42.919 2.598 44.52 2.016 46.149 1.525 C 47.549 1.105 49.137 1.961 49.635 3.331 L 56.064 21.107 C 57.216 24.313 52.826 26.524 50.927 23.707 L 50.912 23.707 Z M 63.066 2.658 L 64.343 15.002 C 64.685 18.395 59.891 19.485 58.723 16.294 L 54.225 3.904 C 53.555 2.051 54.895 0.059 56.871 0.012 C 58.054 -0.018 59.253 0.012 60.436 0.074 C 61.759 0.152 62.926 1.351 63.066 2.643 Z M 75.085 6.576 L 74.198 12.756 C 73.715 16.134 68.781 16.04 68.438 12.662 L 67.738 5.86 C 67.52 3.697 69.668 2.109 71.708 2.872 C 72.287 3.093 72.862 3.322 73.435 3.557 C 74.525 4.024 75.272 5.409 75.1 6.592 Z M 84.091 13.322 C 82.799 16.482 78.051 15.205 78.534 11.843 C 78.83 9.82 81.071 8.73 82.846 9.742 C 84.104 10.451 84.637 11.985 84.091 13.322 Z" fill="rgb(42,157,144)"></path></svg>